<svg width="90" height="90" viewBox="0 0 90 90" fill="none" xmlns="http://www.w3.org/2000/svg">
<circle cx="45" cy="45" r="45" fill="white" fill-opacity="0.4"/>
<path d="M65.2369 23.022C64.753 22.6085 64.1134 22.4272 63.4828 22.5267L35.9022 26.8815C34.844 27.0486 34.0645 27.9608 34.0645 29.0322V37.7419V51.5322H29.7096C24.9071 51.5323 20.9999 55.1138 20.9999 59.5161C20.9999 63.9185 24.9071 67.5 29.7096 67.5C34.5121 67.5 38.4193 63.9185 38.4193 59.5161V53.7096V39.6025L61.6451 35.9352V47.9032H57.2903C52.4877 47.9032 48.5806 51.4847 48.5806 55.8871C48.5806 60.2895 52.4877 63.871 57.2903 63.871C62.0928 63.871 65.9999 60.2894 65.9999 55.8871V50.0806V33.3871V24.6774C65.9999 24.0406 65.721 23.4357 65.2369 23.022Z" fill="white"/>
</svg>
