<svg width="90" height="90" viewBox="0 0 90 90" fill="none" xmlns="http://www.w3.org/2000/svg">
<circle cx="45" cy="45" r="45" fill="black" fill-opacity="0.4"/>
<path d="M13.5 42.5C12.1193 42.5 11 43.6193 11 45C11 46.3807 12.1193 47.5 13.5 47.5V42.5ZM78.2678 46.7678C79.2441 45.7915 79.2441 44.2085 78.2678 43.2322L62.3579 27.3223C61.3816 26.346 59.7986 26.346 58.8223 27.3223C57.846 28.2986 57.846 29.8816 58.8223 30.8579L72.9645 45L58.8223 59.1421C57.846 60.1184 57.846 61.7014 58.8223 62.6777C59.7986 63.654 61.3816 63.654 62.3579 62.6777L78.2678 46.7678ZM13.5 47.5L76.5 47.5V42.5L13.5 42.5V47.5Z" fill="white"/>
</svg>
